<svg id="color" enable-background="new 0 0 24 24" height="512" viewBox="0 0 24 24" width="512" xmlns="http://www.w3.org/2000/svg"><path d="m18.25 24c-.414 0-.75-.336-.75-.75v-4.5c0-.414.336-.75.75-.75s.75.336.75.75v4.5c0 .414-.336.75-.75.75z" fill="#607d8b"/><path d="m18.25 16c-.414 0-.75-.336-.75-.75v-1.5c0-.414.336-.75.75-.75s.75.336.75.75v1.5c0 .414-.336.75-.75.75z" fill="#607d8b"/><path d="m15.25 21c-.414 0-.75-.336-.75-.75v-2.5c0-.414.336-.75.75-.75s.75.336.75.75v2.5c0 .414-.336.75-.75.75z" fill="#607d8b"/><path d="m12 24c-.414 0-.75-.336-.75-.75v-1.5c0-.414.336-.75.75-.75s.75.336.75.75v1.5c0 .414-.336.75-.75.75z" fill="#607d8b"/><path d="m8.75 21c-.414 0-.75-.336-.75-.75v-2.5c0-.414.336-.75.75-.75s.75.336.75.75v2.5c0 .414-.336.75-.75.75z" fill="#607d8b"/><path d="m12.039 3.994c-.448 0-.795-.39-.747-.833.108-.964-.106-1.401-.848-1.732-.378-.168-.548-.611-.379-.99.169-.378.61-.551.991-.379 1.341.598 1.906 1.667 1.728 3.268-.043.383-.368.666-.745.666z" fill="#607d8b"/><path d="m10.408 13c-.84 0-1.703-.425-2.468-1.227-.879-.922-1.515-2.225-1.792-3.67-.277-1.449-.161-2.877.327-4.024.494-1.162 1.302-1.89 2.276-2.048.825-.135 1.541.192 1.998.488.403.263.885.419 1.288.419.378 0 .788-.141 1.215-.419.661-.431 1.335-.598 1.997-.488.975.158 1.783.886 2.277 2.049.487 1.145.604 2.574.326 4.023-.277 1.445-.913 2.748-1.792 3.67-1.291 1.353-2.891 1.603-4.061.635-.466.387-.998.592-1.591.592z" fill="#f44336"/><path d="m10.748-.007c-.287 0-.559.167-.683.446-.168.379.001.822.379.99.643.287.889.654.874 1.373.233.083.468.131.682.136v-2.264c-.254-.242-.569-.447-.944-.614-.101-.046-.205-.067-.308-.067z" fill="#546d79"/><path d="m9.136 2c-.125 0-.254.01-.386.031-.973.158-1.781.886-2.275 2.048-.488 1.147-.604 2.575-.327 4.025.277 1.445.913 2.748 1.792 3.67.765.801 1.627 1.226 2.468 1.226.594 0 1.125-.205 1.592-.592v-9.47c-.214-.005-.449-.053-.682-.136-.196-.07-.391-.166-.569-.282-.384-.249-.951-.52-1.613-.52z" fill="#d43a2f"/><path d="m5.75 19c-.414 0-.75-.336-.75-.75v-4.5c0-.414.336-.75.75-.75s.75.336.75.75v4.5c0 .414-.336.75-.75.75z" fill="#607d8b"/><path d="m5.75 24c-.414 0-.75-.336-.75-.75v-1.5c0-.414.336-.75.75-.75s.75.336.75.75v1.5c0 .414-.336.75-.75.75z" fill="#607d8b"/><g fill="#546d79"><path d="m5.75 13c-.414 0-.75.336-.75.75v4.5c0 .414.336.75.75.75z"/><path d="m5.75 21c-.414 0-.75.336-.75.75v1.5c0 .414.336.75.75.75z"/><path d="m12 21c-.414 0-.75.336-.75.75v1.5c0 .414.336.75.75.75z"/><path d="m8.75 17c-.414 0-.75.336-.75.75v2.5c0 .414.336.75.75.75v-.656-3.344.344z"/><path d="m15.25 17c-.414 0-.75.336-.75.75v2.5c0 .414.336.75.75.75v-.656-3.344.344z"/><path d="m18.25 24c-.414 0-.75-.336-.75-.75v-4.5c0-.414.336-.75.75-.75z"/><path d="m18.25 16c-.414 0-.75-.336-.75-.75v-1.5c0-.414.336-.75.75-.75z"/></g><path d="m12 19c-.414 0-.75-.336-.75-.75v-3.25c0-.414.336-.75.75-.75s.75.336.75.75v3.25c0 .414-.336.75-.75.75z" fill="#607d8b"/><path d="m13.25 16.75h-2.5c-.303 0-.577-.183-.693-.463s-.052-.603.163-.817l1.25-1.25c.293-.293.768-.293 1.061 0l1.25 1.25c.214.215.279.537.163.817-.117.28-.391.463-.694.463z" fill="#607d8b"/><path d="m12 16.75h-.75v1.5c0 .414.336.75.75.75z" fill="#546d79"/><path d="m12 14c-.192 0-.384.073-.53.22l-1.25 1.25c-.214.215-.279.537-.163.817s.39.463.693.463h.5.75z" fill="#546d79"/></svg>