<svg id="Capa_1" enable-background="new 0 0 512 512" height="512" viewBox="0 0 512 512" width="512" xmlns="http://www.w3.org/2000/svg"><g><path d="m392.95 512h-309.657c-10.035 0-18.171-8.135-18.171-18.171v-439.902c0-10.035 8.135-18.171 18.171-18.171h309.657c10.035 0 18.171 8.135 18.171 18.171v439.902c0 10.036-8.135 18.171-18.171 18.171z" fill="#c8effe"/><path d="m428.707 0h-309.657c-10.035 0-18.171 8.135-18.171 18.171v17.586h292.071c10.035 0 18.171 8.135 18.171 18.171v422.316h17.586c10.035 0 18.171-8.135 18.171-18.171v-439.902c-.001-10.036-8.136-18.171-18.171-18.171z" fill="#3c87d0"/><path d="m162.966 154.48h-46.702c-3.414 0-6.181-2.767-6.181-6.181v-46.702c0-3.414 2.767-6.181 6.181-6.181h46.702c3.414 0 6.181 2.767 6.181 6.181v46.702c0 3.414-2.767 6.181-6.181 6.181z" fill="#7ca1b1"/><g><path d="m367.533 132.675h-164.142c-4.268 0-7.726-3.459-7.726-7.726 0-4.268 3.459-7.726 7.726-7.726h164.142c4.268 0 7.726 3.459 7.726 7.726.001 4.267-3.458 7.726-7.726 7.726z" fill="#3e5959"/></g><path d="m162.966 253.767h-46.702c-3.414 0-6.181-2.767-6.181-6.181v-46.702c0-3.414 2.767-6.181 6.181-6.181h46.702c3.414 0 6.181 2.767 6.181 6.181v46.702c0 3.413-2.767 6.181-6.181 6.181z" fill="#7ca1b1"/><g><path d="m367.533 231.962h-164.142c-4.268 0-7.726-3.459-7.726-7.726s3.459-7.726 7.726-7.726h164.142c4.268 0 7.726 3.459 7.726 7.726s-3.458 7.726-7.726 7.726z" fill="#3e5959"/></g><path d="m162.966 353.054h-46.702c-3.414 0-6.181-2.767-6.181-6.181v-46.702c0-3.414 2.767-6.181 6.181-6.181h46.702c3.414 0 6.181 2.767 6.181 6.181v46.702c0 3.413-2.767 6.181-6.181 6.181z" fill="#7ca1b1"/><g><path d="m367.533 331.249h-164.142c-4.268 0-7.726-3.459-7.726-7.726s3.459-7.726 7.726-7.726h164.142c4.268 0 7.726 3.459 7.726 7.726s-3.458 7.726-7.726 7.726z" fill="#3e5959"/></g><path d="m162.966 448.223h-46.702c-3.414 0-6.181-2.767-6.181-6.181v-46.702c0-3.414 2.767-6.181 6.181-6.181h46.702c3.414 0 6.181 2.767 6.181 6.181v46.702c0 3.413-2.767 6.181-6.181 6.181z" fill="#7ca1b1"/><g><path d="m367.533 426.418h-164.142c-4.268 0-7.726-3.459-7.726-7.726 0-4.268 3.459-7.726 7.726-7.726h164.142c4.268 0 7.726 3.459 7.726 7.726.001 4.267-3.458 7.726-7.726 7.726z" fill="#3e5959"/></g><g><path d="m138.282 346.551c-.165 0-.33-.005-.495-.016-2.361-.151-4.523-1.376-5.867-3.324l-19.89-28.845c-2.422-3.513-1.538-8.325 1.975-10.747 3.512-2.42 8.325-1.538 10.747 1.975l14.327 20.778 47.709-53.145c2.85-3.177 7.733-3.441 10.91-.589 3.176 2.851 3.439 7.735.589 10.91l-54.257 60.438c-1.471 1.638-3.563 2.565-5.748 2.565z" fill="#3e5959"/></g><g><path d="m137.594 248.625c-.223 0-.447-.01-.671-.029-2.358-.205-4.491-1.48-5.79-3.458l-19.224-29.293c-2.341-3.567-1.347-8.358 2.22-10.699 3.568-2.34 8.358-1.347 10.699 2.22l13.847 21.1 48.915-52.036c2.922-3.112 7.813-3.262 10.922-.338 3.11 2.923 3.261 7.813.338 10.922l-55.628 59.177c-1.466 1.56-3.507 2.434-5.628 2.434z" fill="#3e5959"/></g><g><path d="m137.594 151.96c-.223 0-.447-.01-.671-.029-2.358-.205-4.491-1.48-5.79-3.458l-19.224-29.294c-2.341-3.567-1.347-8.358 2.22-10.699 3.568-2.338 8.358-1.346 10.699 2.22l13.847 21.101 48.915-52.036c2.922-3.112 7.813-3.262 10.922-.338 3.11 2.923 3.261 7.813.338 10.922l-55.628 59.177c-1.466 1.56-3.507 2.434-5.628 2.434z" fill="#3e5959"/></g><g><path d="m152.262 288.659h180.675v60.619h-180.675z" fill="#d83131" transform="matrix(-.707 .707 -.707 -.707 639.688 372.97)"/><path d="m312.379 206.326-27.333 27.333 42.864 42.864 27.333-27.333c3.788-3.788 3.788-9.929 0-13.716l-29.147-29.147c-3.788-3.789-9.929-3.789-13.717-.001z" fill="#f47c7c"/><path d="m200.154 404.279-42.864-42.864-17.99 53.845c-1.713 5.128 1.881 8.723 7.009 7.009z" fill="#f9c6c6"/><path d="m152.262 288.659h180.675v60.619h-180.675z" fill="#d83131" transform="matrix(-.707 .707 -.707 -.707 639.688 372.97)"/><path d="m312.379 206.326-27.333 27.333 42.864 42.864 27.333-27.333c3.788-3.788 3.788-9.929 0-13.716l-29.147-29.147c-3.788-3.789-9.929-3.789-13.717-.001z" fill="#f47c7c"/><path d="m200.154 404.279-42.864-42.864-17.99 53.845c-1.713 5.128 1.881 8.723 7.009 7.009z" fill="#f9c6c6"/><path d="m163.37 315.475h180.675v29.202h-180.675z" fill="#ca2c2c" transform="matrix(.707 -.707 .707 .707 -159.09 276.075)"/><path d="m355.243 235.473-20.649-20.649c3.788 3.788 3.788 9.929 0 13.716l-27.333 27.333 20.649 20.649 27.333-27.333c3.787-3.787 3.787-9.928 0-13.716z" fill="#ee6161"/><path d="m179.505 383.63-33.361 11.146-6.844 20.484c-1.713 5.128 1.881 8.723 7.009 7.009l53.845-17.99z" fill="#f9b1b1"/></g><path d="m392.95 35.757h-35.861c10.035 0 18.171 8.135 18.171 18.171v439.902c0 10.035-8.135 18.171-18.171 18.171h35.861c10.035 0 18.171-8.135 18.171-18.171v-439.903c0-10.035-8.135-18.17-18.171-18.17z" fill="#b3dafe"/></g></svg>