<svg height="512" viewBox="0 0 60 56" width="512" xmlns="http://www.w3.org/2000/svg"><g id="Page-1" fill="none" fill-rule="evenodd"><g id="001---Book" fill-rule="nonzero"><rect id="Rectangle-path" fill="#91562d" height="46" rx="4" width="58" x="1" y="9"/><path id="Shape" d="m55 9h-3c2.209139 0 4 1.790861 4 4v38c0 2.209139-1.790861 4-4 4h3c2.209139 0 4-1.790861 4-4v-38c0-2.209139-1.790861-4-4-4z" fill="#6d4122"/><path id="Shape" d="m30 51h-22c-1.65685425 0-3-1.3431458-3-3v-6c0 1.6568542 1.34314575 3 3 3h16c3.3116533.0049563 5.9950437 2.6883467 6 6z" fill="#9e9e9e"/><path id="Shape" d="m28.24 46.76c-1.1206101-1.1308021-2.6480021-1.7648139-4.24-1.76l-3-.0000272c3.3116533.0049835 5.9950437 2.6883739 6 6.0000272h3.0000272c.0047867-1.5919979-.6292251-3.1193899-1.7600272-4.24z" fill="#707070"/><path id="Shape" d="m30 9v42c-.0049563-3.3116533-2.6883467-5.9950437-6-6h-16c-1.65685425 0-3-1.3431458-3-3v-36c0-1.65685425 1.34314575-3 3-3h16c3.3137085 0 6 2.6862915 6 6z" fill="#f5f5f5"/><path id="Shape" d="m24 3h-3c3.3137085 0 6 2.6862915 6 6v36.809c1.8548132 1.0708759 2.9981603 3.0492475 3 5.191v-42c0-3.3137085-2.6862915-6-6-6z" fill="#cfd8dc"/><path id="Shape" d="m55 6v36c0 1.6568542-1.3431458 3-3 3h-16c-3.3116533.0049563-5.9950437 2.6883467-6.0000037 6l.0000037-42c-.0028032-2.5419973 1.6014834-4.80805209 4-5.65v20.65l5-4 5 4v-21h8c1.6568542 0 3 1.34314575 3 3z" fill="#f5f5f5"/><path id="Shape" d="m52 3h-3c1.6568542 0 3 1.34314575 3 3v36c0 1.6568542-1.3431458 3-3 3h3c1.6568542 0 3-1.3431458 3-3v-36c0-1.65685425-1.3431458-3-3-3z" fill="#cfd8dc"/><path id="Shape" d="m55 42v6c0 1.6568542-1.3431458 3-3 3h-22c.0049563-3.3116533 2.6883467-5.9950437 6-6h16c1.6568542 0 3-1.3431458 3-3z" fill="#9e9e9e"/><path id="Shape" d="m52 45v3c0 1.6568542-1.3431458 3-3 3h3c1.6568542 0 3-1.3431458 3-3v-6c0 1.6568542-1.3431458 3-3 3z" fill="#707070"/><path id="Shape" d="m44 3v21l-5-4-5 4v-21c.0032948-1.10320187.8967981-1.9967052 2-2h6c1.1032019.0032948 1.9967052.89679813 2 2z" fill="#f44335"/><path id="Shape" d="m42 1h-3c1.1032019.0032948 1.9967052.89679813 2 2v18.6l3 2.4v-21c-.0032948-1.10320187-.8967981-1.9967052-2-2z" fill="#c81e1e"/><g fill="#000"><path id="Shape" d="m56 8.1v-2.1c0-2.209139-1.790861-4-4-4h-7.184c-.4222546-1.19435086-1.5492146-1.99474861-2.816-2h-6c-1.5309433.0047662-2.8114852 1.16407082-2.968 2.687-1.2607142.58668075-2.315267 1.53982082-3.026 2.735-1.2598906-2.11853459-3.5411472-3.4183115-6.006-3.422h-16c-2.209139 0-4 1.790861-4 4v2.1c-2.3264168.47843265-3.99700171 2.5248992-4 4.9v38c.00330612 2.7600532 2.23994685 4.9966939 5 5h50c2.7600532-.0033061 4.9966939-2.2399468 5-5v-38c-.0029983-2.3751008-1.6735832-4.42156735-4-4.9zm-21-5.1c0-.55228475.4477153-1 1-1h6c.5522847 0 1 .44771525 1 1v18.919l-3.375-2.7c-.3653328-.2925003-.8846672-.2925003-1.25 0l-3.375 2.7zm-2 2v19c-.0001443.3845434.2202266.7351047.5668181.9016819.3465916.1665772.7579978.1196578 1.0581819-.1206819l4.375-3.5 4.375 3.5c.3001841.2403397.7115903.2872591 1.0581819.1206819.3465915-.1665772.5669624-.5171385.5668181-.9016819v-20h7c1.1045695 0 2 .8954305 2 2v36c0 1.1045695-.8954305 2-2 2h-16c-1.8562593-.0084825-3.6379382.7299197-4.944 2.049-.02.02-.037.042-.0560025.061l.0000025-37.11c-.0015777-1.57415855.7397265-3.05676704 2-4zm21 40.46v2.54c0 1.1045695-.8954305 2-2 2h-20.9c.4815778-2.3245107 2.5261371-3.9935387 4.9-4h16c.7024341.0010879 1.3925804-.1842164 2-.537zm-48-39.46c0-1.1045695.8954305-2 2-2h16c2.7600532.00330612 4.9966939 2.23994685 5 5v37.1c-1.3154939-1.3453092-3.1184117-2.1025347-5-2.1h-16c-1.1045695 0-2-.8954305-2-2zm0 39.463c.60741957.3527836 1.29756593.5380879 2 .537h16c2.3752386.0026123 4.421918 1.6733709 4.9 4h-20.9c-1.1045695 0-2-.8954305-2-2zm52 5.537c0 1.6568542-1.3431458 3-3 3h-50c-1.65685425 0-3-1.3431458-3-3v-38c.00525139-1.2667854.80564913-2.3937454 2-2.816v37.816c0 2.209139 1.790861 4 4 4h44c2.209139 0 4-1.790861 4-4v-37.816c1.1943509.4222546 1.9947486 1.5492146 2 2.816z"/><path id="Shape" d="m10 10h14c.5522847 0 1-.44771525 1-1s-.4477153-1-1-1h-14c-.55228475 0-1 .44771525-1 1s.44771525 1 1 1z"/><path id="Shape" d="m10 15h14c.5522847 0 1-.4477153 1-1s-.4477153-1-1-1h-14c-.55228475 0-1 .4477153-1 1s.44771525 1 1 1z"/><path id="Shape" d="m10 20h14c.5522847 0 1-.4477153 1-1s-.4477153-1-1-1h-14c-.55228475 0-1 .4477153-1 1s.44771525 1 1 1z"/><path id="Shape" d="m10 25h4c.5522847 0 1-.4477153 1-1s-.4477153-1-1-1h-4c-.55228475 0-1 .4477153-1 1s.44771525 1 1 1z"/><path id="Shape" d="m24 23h-6c-.5522847 0-1 .4477153-1 1s.4477153 1 1 1h6c.5522847 0 1-.4477153 1-1s-.4477153-1-1-1z"/><path id="Shape" d="m10 30h14c.5522847 0 1-.4477153 1-1s-.4477153-1-1-1h-14c-.55228475 0-1 .4477153-1 1s.44771525 1 1 1z"/><path id="Shape" d="m10 35h14c.5522847 0 1-.4477153 1-1s-.4477153-1-1-1h-14c-.55228475 0-1 .4477153-1 1s.44771525 1 1 1z"/><path id="Shape" d="m10 40h5c.5522847 0 1-.4477153 1-1s-.4477153-1-1-1h-5c-.55228475 0-1 .4477153-1 1s.44771525 1 1 1z"/><path id="Shape" d="m24 38h-5c-.5522847 0-1 .4477153-1 1s.4477153 1 1 1h5c.5522847 0 1-.4477153 1-1s-.4477153-1-1-1z"/><path id="Shape" d="m48 10h2c.5522847 0 1-.44771525 1-1s-.4477153-1-1-1h-2c-.5522847 0-1 .44771525-1 1s.4477153 1 1 1z"/><path id="Shape" d="m48 15h2c.5522847 0 1-.4477153 1-1s-.4477153-1-1-1h-2c-.5522847 0-1 .4477153-1 1s.4477153 1 1 1z"/><path id="Shape" d="m48 20h2c.5522847 0 1-.4477153 1-1s-.4477153-1-1-1h-2c-.5522847 0-1 .4477153-1 1s.4477153 1 1 1z"/><path id="Shape" d="m48 25h2c.5522847 0 1-.4477153 1-1s-.4477153-1-1-1h-2c-.5522847 0-1 .4477153-1 1s.4477153 1 1 1z"/><path id="Shape" d="m36 30h14c.5522847 0 1-.4477153 1-1s-.4477153-1-1-1h-14c-.5522847 0-1 .4477153-1 1s.4477153 1 1 1z"/><path id="Shape" d="m36 35h14c.5522847 0 1-.4477153 1-1s-.4477153-1-1-1h-14c-.5522847 0-1 .4477153-1 1s.4477153 1 1 1z"/><path id="Shape" d="m36 40h5c.5522847 0 1-.4477153 1-1s-.4477153-1-1-1h-5c-.5522847 0-1 .4477153-1 1s.4477153 1 1 1z"/><path id="Shape" d="m50 38h-5c-.5522847 0-1 .4477153-1 1s.4477153 1 1 1h5c.5522847 0 1-.4477153 1-1s-.4477153-1-1-1z"/></g></g></g></svg>