<svg height="512" viewBox="0 0 512 512" width="512" xmlns="http://www.w3.org/2000/svg"><g><g fill="#57a4ff"><path d="m120 280h40v32h-40z"/><path d="m120 352h40v32h-40z"/><path d="m360 496v-64h64"/><path d="m120 208h40v32h-40z"/><path d="m120 280h40v32h-40z"/><path d="m120 352h40v32h-40z"/></g><g fill="#004fac"><path d="m424 8h-336a8 8 0 0 0 -8 8v480a8 8 0 0 0 8 8h272a8.008 8.008 0 0 0 5.66-2.34l64-64a8.008 8.008 0 0 0 2.34-5.66v-416a8 8 0 0 0 -8-8zm-56 468.69v-36.69h36.69zm48-52.69h-56a8 8 0 0 0 -8 8v56h-256v-464h320z"/><path d="m232 64h160a8 8 0 0 0 0-16h-160a8 8 0 0 0 0 16z"/><path d="m232 96h160a8 8 0 0 0 0-16h-160a8 8 0 0 0 0 16z"/><path d="m232 128h80a8 8 0 0 0 0-16h-80a8 8 0 0 0 0 16z"/><path d="m392 200h-200a8 8 0 0 0 0 16h200a8 8 0 0 0 0-16z"/><path d="m192 248h104a8 8 0 0 0 0-16h-104a8 8 0 0 0 0 16z"/><path d="m328 248a8 8 0 0 0 0-16h-8a8 8 0 0 0 0 16z"/><path d="m175.31 132 14.35-14.34a8 8 0 0 0 -11.32-11.32l-14.34 14.35-24.69-24.69h20.69a8 8 0 0 0 8-8v-32a8 8 0 0 0 -8-8h-40a8 8 0 0 0 -8 8v72a8 8 0 0 0 16 0v-20.69l24.69 24.69-14.35 14.34a8 8 0 0 0 11.32 11.32l14.34-14.35 14.34 14.35a8 8 0 0 0 11.32-11.32zm-47.31-68h24v16h-24z"/><path d="m160 200h-40a8 8 0 0 0 -8 8v32a8 8 0 0 0 8 8h40a8 8 0 0 0 8-8v-32a8 8 0 0 0 -8-8zm-8 32h-24v-16h24z"/><path d="m392 272h-200a8 8 0 0 0 0 16h200a8 8 0 0 0 0-16z"/><path d="m192 320h104a8 8 0 0 0 0-16h-104a8 8 0 0 0 0 16z"/><path d="m328 320a8 8 0 0 0 0-16h-8a8 8 0 0 0 0 16z"/><path d="m160 272h-40a8 8 0 0 0 -8 8v32a8 8 0 0 0 8 8h40a8 8 0 0 0 8-8v-32a8 8 0 0 0 -8-8zm-8 32h-24v-16h24z"/><path d="m392 344h-200a8 8 0 0 0 0 16h200a8 8 0 0 0 0-16z"/><path d="m296 376h-104a8 8 0 0 0 0 16h104a8 8 0 0 0 0-16z"/><path d="m328 376h-8a8 8 0 0 0 0 16h8a8 8 0 0 0 0-16z"/><path d="m160 344h-40a8 8 0 0 0 -8 8v32a8 8 0 0 0 8 8h40a8 8 0 0 0 8-8v-32a8 8 0 0 0 -8-8zm-8 32h-24v-16h24z"/><path d="m344 128a8 8 0 0 0 0-16h-8a8 8 0 0 0 0 16z"/></g></g></svg>