<svg height="512pt" viewBox="-52 0 512 512" width="512pt" xmlns="http://www.w3.org/2000/svg"><path d="m399.953125 504.5v-187.09375l-42.347656-42.347656h-306.628907c-16.539062 16.539062-25.8125 25.808594-42.351562 42.347656v187.09375zm0 0" fill="#787680"/><path d="m305.957031 106.753906h-203.335937l22.667968-99.253906h49l30 14.167969 30-14.167969h49zm0 0" fill="#787680"/><path d="m386.84375 129.667969-182.558594 29.347656-182.550781-29.347656 38.886719-22.914063h287.335937zm0 0" fill="#787680"/><path d="m151.289062 208.3125h-83.332031l23.332031 66.746094h60zm0 0" fill="#787680"/><path d="m257.285156 208.3125h83.332032l-23.332032 66.746094h-60zm0 0" fill="#787680"/><path d="m204.289062 340-52.992187-64.941406h105.988281zm0 0" fill="#c6c5ca"/><path d="m257.285156 208.3125h42.382813v-64.632812l-95.382813 15.335937-95.371094-15.335937v64.632812h42.375v49.226562c3.472657 3.472657 13.558594 13.554688 17.519532 17.515626h70.964844l17.511718-17.507813zm0 0" fill="#ffdaaa"/><g fill="#57565c"><path d="m80.976562 275.058594h-30c-16.539062 16.539062-25.8125 25.808594-42.351562 42.347656v187.09375h30v-187.09375c16.539062-16.539062 25.8125-25.808594 42.351562-42.347656zm0 0"/><path d="m234.289062 21.667969 30-14.167969h-30l-15 7.082031zm0 0"/><path d="m125.289062 7.5-22.667968 99.253906h30l22.667968-99.253906zm0 0"/><path d="m51.734375 129.667969 38.886719-22.914063h-30l-38.886719 22.914063 182.550781 29.347656 15-2.414063zm0 0"/><path d="m67.957031 208.3125 23.332031 66.746094h30l-23.332031-66.746094zm0 0"/><path d="m257.285156 208.3125h30v66.746094h-30zm0 0"/></g><path d="m181.296875 275.058594h-30l52.992187 64.941406 15-18.382812zm0 0" fill="#898890"/><path d="m234.285156 159.015625 65.382813-10.511719v-4.824218l-80.382813 12.921874zm0 0" fill="#ff9478"/><path d="m181.289062 257.539062v-49.226562h-30v49.226562c3.472657 3.472657 13.558594 13.558594 17.519532 17.519532h30c-3.960938-3.960938-14.046875-14.046875-17.519532-17.519532zm0 0" fill="#ff9478"/><path d="m108.914062 143.683594v64.628906h30v-59.808594zm0 0" fill="#ff9478"/><path d="m176.289062 267.558594h55.992188v15h-55.992188zm0 0"/><path d="m327.851562 267.558594 23.332032-66.746094h-101.402344v71.574219l-45.492188 55.75-45.5-55.757813v-71.566406h-101.398437l23.332031 66.746094h-32.855468l-46.742188 46.742187v197.699219h406.328125v-197.699219l-46.742187-46.742187zm-63.070312-51.746094h65.269531l-18.089843 51.746094h-47.179688zm-186.257812 0h65.265624v51.746094h-47.175781zm313.929687 281.1875h-52.515625v-127.050781h-15v127.050781h-241.292969v-127.050781h-15v127.050781h-52.519531v-176.484375l37.957031-37.957031h93.65625l49.050781 60.113281v141.828125h15v-141.828125l49.054688-60.113281h93.65625l37.953125 37.957031zm0 0"/><path d="m103.207031 382.277344h66.664063v15h-66.664063zm0 0"/><path d="m238.707031 382.277344h66.664063v15h-66.664063zm0 0"/><path d="m101.414062 188.3125h15v-35.828125l87.871094 14.125 87.882813-14.125v35.828125h15v-38.238281l101.410156-16.304688-58.574219-34.511719h-38.066406l-22.667969-99.257812h-56.660156l-28.320313 13.371094-28.316406-13.371094h-56.664062l-22.664063 99.253906h-38.066406l-58.578125 34.515625 101.414062 16.300781zm29.855469-173.3125h41.339844l31.679687 14.960938 31.683594-14.960938h41.335938l19.242187 84.253906h-184.523437zm-68.601562 99.253906h283.242187l19.195313 11.308594-160.820313 25.855469-160.8125-25.855469zm0 0"/><path d="m382.453125 472.480469h-15v-94.71875h15zm0-104.71875h-15v-15h15zm0-25h-15v-15h15zm0 0" fill="#fff"/><path d="m279.292969 89.253906h-100.007813v-15h100.007813zm-110.007813 0h-15v-15h15zm-25 0h-15v-15h15zm0 0" fill="#fff"/></svg>