<svg id="Layer_1" enable-background="new 0 0 510 510" height="512" viewBox="0 0 510 510" width="512" xmlns="http://www.w3.org/2000/svg"><g><path d="m255 0c-140.833 0-255 114.167-255 255 0 70.416 28.542 134.166 74.688 180.312l406.458-62.372c18.431-35.269 28.854-75.388 28.854-117.94 0-140.833-114.167-255-255-255z" fill="#05cdff"/><path d="m441.641 428.726h.003c15.524-16.671 28.842-35.423 39.488-55.792 13.065-24.997 3.77-56.332-21.342-69.174-15.051-7.697-26.647-22.478-26.647-49.753v-121.223c7.457 0 13.502-6.045 13.502-13.502v-10.433c0-7.457-6.045-13.502-13.502-13.502h-70.525c-7.457 0-13.502 6.045-13.502 13.502v10.433c0 7.457 6.045 13.502 13.502 13.502h.044v136.112c0 8.965-2.687 17.724-7.714 25.147l-.222.328c-8.365 12.352-22.312 19.75-37.23 19.75h-2.747c-16.949 0-32.35-9.594-40.092-24.671-10.741-20.917-28.878-37.568-51.269-46.279v-106.217h.022c7.457 0 13.502-6.045 13.502-13.502v-10.433c0-7.457-6.045-13.502-13.502-13.502h-70.525c-7.457 0-13.502 6.045-13.502 13.502v10.433c0 7.457 6.045 13.502 13.502 13.502h.022v106.218c-18.45 7.178-34.162 19.829-45.154 35.956l.006.001c-4.02 5.898-7.398 12.295-10.063 19.063-.019.013-.034.022-.053.035-.004.009-.007.019-.01.028.02-.013.032-.02.051-.032-.016.04-.031.081-.047.122-.013.009-.039.028-.052.038-2.064 5.27-3.671 10.76-4.79 16.391-2.729 13.736-9.604 25.751-19.155 34.922-23.198 22.274-24.667 58.958-2.366 82.13 46.587 48.404 111.91 78.174 183.726 78.174 71.097 0 138.324-29.38 186.641-81.274z" fill="#05acff"/><g><path d="m245.894 321.037c2.597-.193-4.54-19.126-6.905-24.82l-1.424-2.134c-10.99-16.128-26.69-28.787-45.141-35.965v-131.463h-43.222v121.235c-19.651 16.692-33.04 33.532-41.543 49.958l.759 28.79z" fill="#fff"/><path d="m108.419 114.464h53.145v37.437h-53.145z" fill="#e8d6ff"/><circle cx="166.121" cy="265.312" fill="#ffdc64" r="18.099"/><circle cx="145.488" cy="205.239" fill="#ffdc64" r="10.616"/><circle cx="150.681" cy="67.338" fill="#ffdc64" r="13.83"/><path d="m64.759 318.581h52.306c2.87-8.784 6.945-17.024 12.049-24.51h-.041l.033-.006c8.703-12.766 20.367-23.353 34.005-30.771 6.811-3.705 11.149-10.736 11.149-18.489v-118.15h-52.316v131.464c-18.45 7.178-34.162 19.829-45.154 35.956l.006.001c-5.084 7.457-9.161 15.704-12.037 24.505z" fill="#e8d6ff"/><path d="m173.834 248.957c-2.343-1.107-4.951-1.744-7.714-1.744-9.996 0-18.099 8.103-18.099 18.099 0 2.485.503 4.852 1.409 7.007 4.286-3.373 8.857-6.4 13.68-9.024 5.57-3.03 9.482-8.284 10.724-14.338z" fill="#ffc305"/><path d="m213.912 307.635c-25.759 7.285-52.737 2.252-78.666-1.139-46.399-6.069-49.86-1.052-59.072 1.135-4.059 2.192-2.88 1.171-9.495 5.544-.004.009-.007.018-.01.028 1.055-.666.681-.403-.048.128-4.301 10.98-6.67 22.93-6.67 35.435 0 53.7 43.533 97.233 97.233 97.233s97.233-43.533 97.233-97.233c0-19.362-5.672-37.392-15.427-52.546-7.755 4.923-16.094 8.874-25.078 11.415z" fill="#ffdc64"/><ellipse cx="179.31" cy="314.122" fill="#ffc305" rx="63.498" ry="23.4" transform="matrix(.997 -.078 .078 .997 -23.871 14.886)"/><path d="m213.912 307.635c-25.759 7.285-52.737 2.252-78.666-1.139-46.399-6.069-49.86-1.052-59.072 1.135-4.059 2.192-2.88 1.171-9.495 5.544-.004.009-.007.018-.01.028 1.055-.666.681-.403-.048.128-4.301 10.98-6.67 22.93-6.67 35.435 0 53.7 43.533 97.233 97.233 97.233s97.233-43.533 97.233-97.233c0-19.362-5.672-37.392-15.427-52.546-7.755 4.923-16.094 8.874-25.078 11.415z" fill="#ffdc64"/><g fill="#ffc305"><path d="m183.342 442.433c-40.994-11.424-71.075-49.032-71.075-93.669 0-15.746 3.763-30.604 10.411-43.758-34.567-3.612-38.204.654-46.503 2.624-4.054 2.19-2.885 1.174-9.472 5.529-.004.009-.007.019-.011.029 1.011-.637.66-.389-.047.125-4.392 11.205-6.693 23.349-6.693 35.452-.001 63.323 60.106 110.989 123.39 93.668z"/><circle cx="132.037" cy="405.087" r="16.86"/><circle cx="196.798" cy="376.921" r="9.151"/><circle cx="166.121" cy="339.308" r="14.432"/></g><path d="m205.949 151.901h-41.743c-10.338 0-18.719-8.381-18.719-18.719 0-10.338 8.381-18.719 18.719-18.719h41.743z" fill="#fff"/><circle cx="148.022" cy="185.918" fill="#ffc305" r="12.823"/></g><g><path d="m246.962 321.037c2.597-.193-4.54-19.126-6.905-24.82l-1.424-2.134c-10.99-16.128-26.69-28.787-45.141-35.965v-131.463h-43.222v121.235c-19.651 16.692-33.04 33.532-41.543 49.958l.759 28.79z" fill="#fff"/><path d="m109.487 114.464h53.145v37.437h-53.145z" fill="#e8d6ff"/><circle cx="167.189" cy="265.312" fill="#ffdc64" r="18.099"/><circle cx="146.555" cy="205.239" fill="#ffdc64" r="10.616"/><circle cx="151.749" cy="67.338" fill="#ffdc64" r="13.83"/><path d="m65.827 318.581h52.306c2.87-8.784 6.945-17.024 12.049-24.51h-.041l.033-.006c8.703-12.766 20.367-23.353 34.005-30.771 6.811-3.705 11.149-10.736 11.149-18.489v-118.15h-52.316v131.464c-18.45 7.178-34.162 19.829-45.154 35.956l.006.001c-5.085 7.457-9.161 15.704-12.037 24.505z" fill="#e8d6ff"/><path d="m174.902 248.957c-2.343-1.107-4.951-1.744-7.714-1.744-9.996 0-18.099 8.103-18.099 18.099 0 2.485.503 4.852 1.409 7.007 4.286-3.373 8.857-6.4 13.68-9.024 5.57-3.03 9.482-8.284 10.724-14.338z" fill="#ffc305"/><path d="m214.98 307.635c-25.759 7.285-52.737 2.252-78.666-1.139-46.399-6.069-49.86-1.052-59.072 1.135-4.059 2.192-2.88 1.171-9.495 5.544-.004.009-.007.018-.01.028 1.055-.666.681-.403-.048.128-4.301 10.98-6.67 22.93-6.67 35.435 0 53.7 43.533 97.233 97.233 97.233s97.233-43.533 97.233-97.233c0-19.362-5.672-37.392-15.427-52.546-7.755 4.923-16.094 8.874-25.078 11.415z" fill="#ffdc64"/><ellipse cx="180.378" cy="314.122" fill="#ffc305" rx="63.498" ry="23.4" transform="matrix(.997 -.078 .078 .997 -23.867 14.969)"/><path d="m214.98 307.635c-25.759 7.285-52.737 2.252-78.666-1.139-46.399-6.069-49.86-1.052-59.072 1.135-4.059 2.192-2.88 1.171-9.495 5.544-.004.009-.007.018-.01.028 1.055-.666.681-.403-.048.128-4.301 10.98-6.67 22.93-6.67 35.435 0 53.7 43.533 97.233 97.233 97.233s97.233-43.533 97.233-97.233c0-19.362-5.672-37.392-15.427-52.546-7.755 4.923-16.094 8.874-25.078 11.415z" fill="#ffdc64"/><g fill="#ffc305"><path d="m184.41 442.433c-40.994-11.424-71.075-49.032-71.075-93.669 0-15.746 3.763-30.604 10.411-43.758-34.567-3.612-38.204.654-46.503 2.624-4.054 2.19-2.885 1.174-9.472 5.529-.004.009-.007.019-.011.029 1.011-.637.66-.389-.047.125-4.392 11.205-6.693 23.349-6.693 35.452-.001 63.323 60.106 110.989 123.39 93.668z"/><circle cx="133.104" cy="405.087" r="16.86"/><circle cx="197.866" cy="376.921" r="9.151"/><circle cx="167.189" cy="339.308" r="14.432"/></g><path d="m207.016 151.901h-41.743c-10.338 0-18.719-8.381-18.719-18.719 0-10.338 8.381-18.719 18.719-18.719h41.743z" fill="#fff"/><circle cx="149.09" cy="185.918" fill="#ffc305" r="12.823"/></g><g><path d="m388.13 126.655c.247 1.187.382 2.396.382 3.612l-38.565 237.503h106.437l-26.499-39.157-18.171-26.852v-175.106z" fill="#fff"/><path d="m294.305 371.107 60.744-10.877 33.255-49.142c4.114-6.079 6.312-13.25 6.312-20.59v-163.843h-53.384v175.106l-18.171 26.852z" fill="#e8d6ff"/><path d="m327.687 114.464h54.726v37.437h-54.726z" fill="#e8d6ff"/><circle cx="387.879" cy="308.012" fill="#f5415f" r="15.119"/><g fill="#cd2846"><path d="m394.386 294.381c-1.973-.944-4.174-1.488-6.507-1.488-8.35 0-15.119 6.769-15.119 15.119 0 5.954 3.451 11.09 8.454 13.555l7.091-10.479c3.383-5 5.446-10.743 6.081-16.707z"/><circle cx="368.363" cy="222.397" r="10.62"/><circle cx="380.277" cy="168.146" r="14.049"/></g><circle cx="361.754" cy="84.706" fill="#f5415f" r="14.943"/><path d="m431.979 331.707c0 9.46-8.729 34.258-29.339 34.258s-48.154-.925-48.154-10.385 27.884-20.147 48.154-23.872c15.06-2.769 29.339-.001 29.339-.001z" fill="#cd2846"/><path d="m425.216 151.901h-44.744c-10.338 0-18.719-8.381-18.719-18.719 0-10.338 8.381-18.719 18.719-18.719h44.744z" fill="#fff"/><path d="m484.683 409.589-52.704-77.882c-14.519 8.96-32.209 12.995-49.092 12.462-6.306-.199-12.341-1.394-18.345-2.737l-50.671 54.57c-5.305 5.714-7.792 13.492-6.785 21.224 2.282 17.513 17.202 30.616 34.864 30.616h122.431c19.656 0 31.319-21.974 20.302-38.253z" fill="#f5415f"/><path d="m321.647 409.589 45.709-67.545c-7.092-1.503-14.089-3.394-21.38-4.296-10.985-1.359-22.105-.268-32.125 4.475l-45.587 67.365c-11.017 16.279.646 38.253 20.303 38.253h53.384c-19.658.001-31.32-21.973-20.304-38.252z" fill="#cd2846"/><circle cx="380.428" cy="369.462" fill="#cd2846" r="9.925"/><circle cx="421.808" cy="405.902" fill="#cd2846" r="13.377"/></g></g></svg>