<svg id="Layer_1" enable-background="new 0 0 512.001 512.001" height="512" viewBox="0 0 512.001 512.001" width="512" xmlns="http://www.w3.org/2000/svg"><g><g clip-rule="evenodd" fill-rule="evenodd"><path d="m256.007 110v100c27.615 0 50-22.386 50-50 0-27.615-22.385-50-50-50z" fill="#ff5d7d"/><path d="m256.007 110c27.615 0 50 22.386 50 50 0 27.615-22.386 50-50 50v60c60.751 0 110-49.249 110-110s-49.249-110-110-110z" fill="#ffc144"/><path d="m256.007 50c60.751 0 110 49.249 110 110s-49.249 110-110 110v40c82.842 0 150-67.158 150-150 0-76.752-57.646-140.041-132.004-148.932-5.9-.706-11.906-1.068-17.996-1.068z" fill="#c68a65"/><path d="m154.661 49.414c-29.022 26.611-47.536 64.497-48.605 106.717 22.554 7.912 12.418 24.355 40.304 7.019 6.599-4.102 22.607 8.45 30.3 11.489 14.736 5.82 23.857 7.839 34.333 1.944 15.203-8.555 6.067-24.393-2.186-33.157-8.643-9.177-25.627.76-29.835-7.345-16.393-31.574 26.605-24.471 29.561-40.048 4.825-25.423-18.158-18.286-27.439-19.279-16.406-1.755-10.931-11.898-26.428-27.337z" fill="#cbe558"/><path d="m208.532 96.033c-2.956 15.577-45.953 8.474-29.561 40.048 4.208 8.105 21.192-1.832 29.835 7.345 8.253 8.763 17.389 24.602 2.186 33.157-10.475 5.895-19.596 3.876-34.333-1.944-7.693-3.038-23.701-15.591-30.3-11.489-27.885 17.336-17.749.893-40.304-7.019-.033 1.286-.049 2.576-.049 3.869 0 13.285 1.727 26.167 4.969 38.434 7.364 27.86 22.541 52.543 43.047 71.564 26.764 24.824 62.602 40.002 101.985 40.002v-40-60-100-60-40c-39.071 0-74.652 14.938-101.346 39.414l.005.004c15.497 15.438 10.021 25.581 26.428 27.337 9.28.992 32.263-6.145 27.438 19.278z" fill="#60a4ff"/><path d="m245.237 371.127c-55.922 6.946-176.146-44.986-208.793 110.853-2.287 10.917 4.759 20.021 13.109 20.021h90.002c10.833 0 15.689-4.902 17.911-13.196l8.403-16.352 61.224.678c40.274.446 51.756-1.799 89.457-16.916 52.413-21.017 128.409-55.413 145.346-61.781 24.629-9.547 15.402-44.755-15.127-37.096l-99.993 26.955c.96-2.342 1.35-4.951.985-7.865-1.309-10.455-10.967-17.942-21.462-16.639-10.06 1.249-71.005 10.09-81.062 11.338z" fill="#ffdcd5"/></g><g><path d="m256.008 320c88.224 0 160-71.776 160-160s-71.776-160-160-160c-88.225 0-160 71.776-160 160s71.775 160 160 160zm-139.088-144.058c8.762 7.485 17.113 6.433 33.406-3.491 3.036.713 9.521 4.451 12.783 6.332 3.557 2.051 6.916 3.987 9.877 5.157 8.589 3.392 16.729 6.2 25.05 6.2 5.796 0 11.681-1.364 17.861-4.842 9.323-5.246 12.216-12.484 13.001-17.632 2.073-13.586-8.269-26.271-12.812-31.095-7.673-8.147-18.141-7.557-25.066-7.167-1.232.069-2.889.165-4.107.15-2.159-4.779-1.607-6.558-1.528-6.764.795-2.081 7.118-4.473 11.301-6.056 8.687-3.287 19.497-7.377 21.672-18.836 1.927-10.155.45-18.126-4.391-23.693-7.321-8.418-19.01-7.853-26.748-7.48-1.895.093-4.042.195-5.061.086-4.353-.466-4.353-.466-7.187-5.913-1.484-2.852-3.31-6.355-6.181-10.327 21.499-17.17 48.144-28.149 77.218-30.211v279.278c-67.25-4.769-121.52-57.245-129.088-123.696zm149.087-54.652c17.195 4.491 30 20.241 30 38.71s-12.805 34.219-30 38.71zm130.001 38.71c0 73.834-57.454 134.494-130 139.639v-20.07c43.589-3.663 82.275-31.062 99.973-71.501 2.214-5.06-.092-10.956-5.152-13.17-5.059-2.215-10.957.092-13.17 5.152-14.525 33.187-46.008 55.833-81.651 59.434v-40.316c12.409-2.074 23.823-7.983 32.795-17.113 11.095-11.29 17.205-26.226 17.205-42.055s-6.11-30.765-17.205-42.055c-8.973-9.13-20.386-15.039-32.795-17.113v-40.316c35.643 3.601 67.127 26.247 81.651 59.434 1.644 3.755 5.314 5.993 9.167 5.993 1.338 0 2.699-.271 4.004-.841 5.06-2.214 7.366-8.111 5.152-13.17-17.699-40.439-56.384-67.838-99.973-71.501v-20.07c72.545 5.145 129.999 65.805 129.999 139.639zm-242.069-95.716c1.301 2.031 2.305 3.954 3.289 5.846 3.649 7.013 7.785 14.961 22.801 16.568 2.563.273 5.277.143 8.154.004 2.737-.134 9.102-.441 10.68.633.131.304.71 1.984-.082 6.428-1.341 1.3-6.21 3.143-9.175 4.264-8.422 3.187-18.904 7.152-22.905 17.621-2.741 7.171-1.631 15.362 3.394 25.041 5.007 9.646 15.675 9.045 22.05 8.683 3.605-.204 8.092-.457 9.38.91 5.532 5.875 8.011 11.674 7.6 14.367-.069.452-.251 1.651-3.039 3.219-6.337 3.568-11.632 3.047-25.755-2.53-1.592-.629-4.46-2.283-7.234-3.882-10.446-6.023-22.287-12.849-32.019-6.799-6.788 4.22-10.005 5.545-11.385 5.96-.4-.396-.877-.896-1.27-1.307-2.524-2.646-6.027-6.314-12.042-9.545 2.394-32.944 16.237-62.758 37.558-85.481z"/><path d="m484.646 366.712c-4.138-13.019-18.521-24.539-40.312-19.073-.057.015-.113.029-.169.044l-87.263 23.523c-3.724-13.811-17.208-23.156-31.837-21.341-5.121.636-22.428 3.095-40.752 5.699-17.39 2.471-35.373 5.026-40.31 5.64-10.807 1.342-25.278.199-40.599-1.012-30.145-2.383-67.659-5.347-100.725 8.808-39.018 16.703-63.885 52.988-76.023 110.931-1.787 8.528.146 17.061 5.304 23.411 4.47 5.504 10.882 8.661 17.592 8.661h90.002c14.026 0 23.428-6.738 27.257-19.505l5.126-9.976 55.043.61c41.262.458 54.337-2.015 93.289-17.634 30.109-12.073 67.682-28.418 97.873-41.552 21.602-9.397 40.258-17.513 47.271-20.15.031-.012.063-.024.094-.036 18.07-7.006 23.306-23.94 19.139-37.048zm-26.324 18.382c-7.52 2.833-25.459 10.636-48.157 20.511-30.072 13.082-67.498 29.363-97.337 41.329-36.557 14.659-46.962 16.626-85.624 16.198l-61.223-.678c-3.808-.064-7.274 2.06-9.005 5.429l-8.403 16.353c-.325.632-.581 1.296-.765 1.983-1.102 4.11-2.156 5.784-8.252 5.784h-90.004c-.649 0-1.422-.475-2.067-1.27-1.323-1.628-1.792-4.133-1.253-6.701 10.702-51.086 31.741-82.699 64.319-96.645 16.763-7.176 35.181-9.227 53.488-9.227 12.856 0 25.658 1.012 37.791 1.971 16.363 1.293 31.817 2.514 44.64.922 5.111-.635 22.378-3.089 40.658-5.687 17.431-2.477 35.457-5.038 40.403-5.652 5.06-.627 9.679 2.942 10.307 7.958.195 1.559.714 5.7-10.949 11.047-25.381 11.637-52.426 21.596-74.202 27.325-5.341 1.405-8.532 6.874-7.126 12.215 1.405 5.342 6.877 8.529 12.215 7.126 22.839-6.009 51.067-16.392 77.448-28.486 9.16-4.2 14.841-9.095 18.225-14.047l95.831-25.833c9.892-2.456 14.908 1.357 16.306 5.753 1.336 4.204-.393 9.64-7.264 12.322z"/><path d="m366.007 150c-5.523 0-9.996 4.477-9.996 10s4.48 10 10.003 10 10-4.477 10-10-4.477-10-10-10z"/></g></g></svg>