<svg id="Layer_1" enable-background="new 0 0 512 512" height="512" viewBox="0 0 512 512" width="512" xmlns="http://www.w3.org/2000/svg"><g><g><g><path d="m482.558 81.548h-453.116c-6.966 0-12.613-5.647-12.613-12.613 0-6.966 5.647-12.613 12.613-12.613h453.116c6.966 0 12.613 5.647 12.613 12.613.001 6.966-5.647 12.613-12.613 12.613z" fill="#ffd52b"/></g><g><g><g><path d="m351.112 81.517h-177.581v86.55c0 15.67 4.511 31.009 12.994 44.189 7.673 11.54 12.994 24.131 12.994 38.214v254.03h112.372v-254.588c0-15.341 6.101-30.053 16.961-40.899l15.608-15.589c16.585-16.564 25.902-39.032 25.902-62.459v-30.222c0-10.618-8.618-19.226-19.25-19.226z" fill="#e68d35"/><path d="m284.344 109.941c-3.53 4.099-8.761 6.695-14.599 6.695-10.632 0-19.25-8.61-19.25-19.231v-70.674c0-10.621 8.619-19.231 19.25-19.231 10.632 0 19.25 8.61 19.25 19.231v77.769" fill="#e68d35"/><path d="m269.745 7.5c-3.667 0-7.083 1.043-10 2.821 5.54 3.376 9.25 9.452 9.25 16.41v70.611c0 6.699-3.543 13.015-9.23 16.485 2.913 1.771 6.321 2.809 9.98 2.809 5.838 0 11.069-2.596 14.599-6.695l4.651-5.441v-77.769c0-10.621-8.618-19.231-19.25-19.231z" fill="#d47619"/><path d="m327.465 81.517h-38.477c-.007 0-.012-.005-.012-.012v-48.421c0-10.632 8.619-19.25 19.25-19.25 10.632 0 19.25 8.619 19.25 19.25v48.421c.001.006-.004.012-.011.012z" fill="#e68d35"/><path d="m308.227 13.833c-3.667 0-7.083 1.044-10 2.824 5.54 3.38 9.25 9.462 9.25 16.426v48.421c0 .007-.005.012-.012.012h20c.007 0 .012-.005.012-.012v-48.42c0-10.632-8.618-19.251-19.25-19.251z" fill="#d47619"/><path d="m271.586 192.869c0-32.121 26.071-58.16 58.232-58.16v-14.74h-19.501c-17.804 0-32.238-14.415-32.238-32.198 0-3.455 2.804-6.255 6.263-6.255h66.77c10.632 0 19.25 8.608 19.25 19.226v30.222c0 23.428-9.317 45.896-25.902 62.459l-15.608 15.589c-10.86 10.846-16.961 25.559-16.961 40.899v254.589h-112.372v-254.03c0-14.083-5.321-26.675-12.994-38.215-8.483-13.18-12.994-28.519-12.994-44.189v-98.726" fill="none"/><path d="m192.781 102.185c-10.632 0-19.25-8.619-19.25-19.25v-40.719c0-10.632 8.619-19.25 19.25-19.25 10.632 0 19.25 8.619 19.25 19.25v40.718c.001 10.632-8.618 19.251-19.25 19.251z" fill="#e68d35"/><path d="m192.781 22.966c-3.667 0-7.083 1.044-10 2.824 5.54 3.38 9.25 9.462 9.25 16.426v40.718c0 6.964-3.711 13.046-9.25 16.426 2.917 1.78 6.333 2.824 10 2.824 10.632 0 19.25-8.619 19.25-19.25v-40.718c.001-10.632-8.618-19.25-19.25-19.25z" fill="#d47619"/><path d="m231.263 111.317c-10.632 0-19.25-8.619-19.25-19.25v-58.983c0-10.632 8.619-19.25 19.25-19.25 10.632 0 19.25 8.619 19.25 19.25v58.983c0 10.632-8.618 19.25-19.25 19.25z" fill="#e68d35"/><path d="m231.263 13.833c-3.667 0-7.083 1.044-10 2.824 5.54 3.38 9.25 9.462 9.25 16.426v58.983c0 6.964-3.711 13.046-9.25 16.426 2.917 1.78 6.333 2.824 10 2.824 10.632 0 19.25-8.619 19.25-19.25v-58.982c0-10.632-8.618-19.251-19.25-19.251z" fill="#d47619"/></g></g><g><path d="m186.032 287.16h139.937v217.34h-139.937z" fill="#6deba9"/><path d="m285.969 287.16h40v217.34h-40z" fill="#49de90"/><path d="m186.032 261.705h139.937v49.591h-139.937z" fill="#1caf6c"/><path d="m285.969 261.705h40v49.591h-40z" fill="#0ea05e"/></g><path d="m278.079 87.772c0-3.455 2.804-6.255 6.263-6.255h66.77l-21.294 38.453h-19.501c-17.805-.001-32.238-14.416-32.238-32.198z" fill="#e68d35"/></g><g><ellipse cx="107.563" cy="238.99" fill="#ffd52b" rx="22.65" ry="22.627"/><path d="m165.056 420.32h-114.986c-23.511 0-42.57-19.059-42.57-42.57h200.125c0 23.511-19.059 42.57-42.569 42.57z" fill="#ffd52b"/><path d="m167.625 377.75c0 23.511-19.059 42.57-42.57 42.57h40c23.51 0 42.57-19.059 42.57-42.569h-40z" fill="#fcca00"/></g><g><g><ellipse cx="404.437" cy="238.99" fill="#ffd52b" rx="22.65" ry="22.627"/></g><path d="m346.944 420.32h114.986c23.51 0 42.57-19.059 42.57-42.57h-200.125c0 23.511 19.059 42.57 42.569 42.57z" fill="#ffd52b"/><path d="m464.5 377.75c0 23.511-19.059 42.57-42.57 42.57h40c23.511 0 42.57-19.059 42.57-42.569h-40z" fill="#fcca00"/></g></g><path d="m504.5 497h-171.032v-71.037c4.291 1.201 8.807 1.857 13.476 1.857h114.986c27.608 0 50.069-22.461 50.069-50.07 0-4.142-3.358-7.5-7.5-7.5h-20.692l-58.915-109.153c5.956-5.507 9.694-13.377 9.694-22.106 0-14.025-9.642-25.843-22.649-29.183v-120.76h18.622v4.19c0 9.697 15 9.697 15 0v-4.19h36.999c25.819 0 25.857-40.227 0-40.227h-36.999v-7.541c0-9.697-15-9.697-15 0v7.542h-18.622v-7.542c0-9.697-15-9.697-15 0v7.542h-61.96v-15.739c0-14.75-12-26.75-26.75-26.75-6.114 0-11.752 2.066-16.262 5.531-4.806-7.149-12.972-11.864-22.22-11.864s-17.414 4.715-22.22 11.865c-4.51-3.465-10.148-5.531-16.262-5.531-10.056 0-18.831 5.58-23.399 13.804-4.297-2.945-9.491-4.672-15.083-4.672-14.75 0-26.75 12-26.75 26.75v6.605h-50.968v-7.541c0-9.697-15-9.697-15 0v7.542h-18.622v-7.542c0-9.697-15-9.697-15 0v7.542h-36.999c-25.819 0-25.857 40.227 0 40.227h36.999v4.19c0 9.697 15 9.697 15 0v-4.19h18.622v120.759c-13.008 3.34-22.649 15.157-22.649 29.183 0 8.729 3.738 16.599 9.695 22.107l-58.917 109.152h-20.692c-4.142 0-7.5 3.358-7.5 7.5 0 27.608 22.461 50.069 50.069 50.069h114.986c4.669 0 9.185-.656 13.476-1.857v71.038h-171.031c-4.142 0-7.5 3.358-7.5 7.5s3.358 7.5 7.5 7.5h497c4.142 0 7.5-3.358 7.5-7.5s-3.358-7.5-7.5-7.5zm-37.738-126.75h-15.081c-4.142 0-7.5 3.358-7.5 7.5s3.358 7.5 7.5 7.5h27.634c.008 0 .016.002.025.002s.018-.002.027-.002h16.825c-3.443 15.747-17.498 27.569-34.262 27.569h-114.986c-16.764 0-30.819-11.823-34.262-27.57h16.82c.011 0 .021.002.032.002.01 0 .019-.002.029-.002h82.193v-15h-69.645l55.066-102.021c4.839 1.185 9.678 1.185 14.518 0zm-273.23-101.045h124.937v34.591h-124.937zm226.055-30.215c0 8.341-6.796 15.127-15.149 15.127s-15.15-6.786-15.15-15.127 6.796-15.127 15.15-15.127 15.149 6.786 15.149 15.127zm-22.649-29.183c-13.008 3.34-22.65 15.157-22.65 29.183 0 8.729 3.738 16.599 9.695 22.107l-50.514 93.587v-92.979c0-4.142-3.358-7.5-7.5-7.5h-6.577c-.645-14.855 4.129-29.266 14.761-39.885 23.766-23.737 43.71-47.675 43.71-83.355v-30.222c0-4.192-.973-8.16-2.702-11.694h21.778v120.758zm85.62-145.985c6.61 0 6.61 10.227 0 10.227h-36.999v-10.227zm-51.999 0v10.227h-18.622v-10.227zm-33.621 0v10.227l-61.96-.032v-10.195zm-88.711-42.489c6.479 0 11.75 5.271 11.75 11.75v40.933h-23.482v-41.308c.201-6.305 5.38-11.375 11.732-11.375zm-38.482-6.333c6.479 0 11.75 5.263 11.75 11.731l-.019 47.59c-6.218 1.322-10.897 6.848-10.897 13.45 0 7.154 1.914 13.866 5.243 19.67-7.695 4.646-17.827-1.053-17.827-10.036v-70.674c0-6.468 5.271-11.731 11.75-11.731zm-38.482 6.333c6.353 0 11.531 5.07 11.731 11.374v59.735c-.201 6.304-5.379 11.375-11.731 11.375-6.479 0-11.75-5.271-11.75-11.75v-58.984c0-6.479 5.271-11.75 11.75-11.75zm-50.232 20.883c0-6.479 5.271-11.75 11.75-11.75 6.353 0 11.531 5.07 11.731 11.375v41.47c-.201 6.304-5.379 11.375-11.731 11.375-6.479 0-11.75-5.271-11.75-11.75zm-15 21.606v10.227h-50.968v-10.227zm-136.589 10.226c-6.61 0-6.61-10.227 0-10.227h36.999v10.227zm51.999 0v-10.226h18.622v10.227h-18.622zm84.59 15v35.035c0 4.142 3.358 7.5 7.5 7.5s7.5-3.358 7.5-7.5v-17.124c3.549 1.743 7.537 2.726 11.75 2.726 5.592 0 10.786-1.727 15.083-4.672 4.568 8.224 13.342 13.804 23.399 13.804 6.324 0 12.138-2.21 16.722-5.893 4.857 6.78 12.797 11.211 21.76 11.211 5.793 0 11.359-1.874 15.927-5.258 6.779 5.372 15.34 8.592 24.645 8.592h12.001v.165c-32.727 3.729-58.232 31.562-58.232 65.234 0 4.142 3.358 7.5 7.5 7.5s7.5-3.358 7.5-7.5c0-27.934 22.758-50.659 50.732-50.659 4.142 0 7.5-3.358 7.5-7.5v-14.74c0-4.142-3.358-7.5-7.5-7.5h-19.501c-13.223 0-24.055-10.41-24.707-23.453 22.044 0 44.086.032 66.129.032 6.187.329 11.123 5.44 11.123 11.694v30.222c0 31.598-18.458 51.914-39.31 72.742-13.606 13.588-19.341 31.605-19.161 50.499h-97.373c.552-16.72-5.035-32.231-14.215-46.052-7.702-11.984-11.773-25.844-11.773-40.086 0-4.142-3.358-7.5-7.5-7.5s-7.5 3.358-7.5 7.5c0 17.144 4.906 33.828 14.188 48.248 7.46 11.545 12.371 23.964 11.8 37.89h-5.987c-4.142 0-7.5 3.358-7.5 7.5v92.979l-50.514-93.587c5.957-5.507 9.695-13.378 9.695-22.107 0-14.025-9.642-25.843-22.65-29.183v-120.759zm-58.468 134.815c8.354 0 15.15 6.786 15.15 15.127s-6.796 15.127-15.15 15.127-15.149-6.786-15.149-15.127 6.795-15.127 15.149-15.127zm-7.259 44.366c4.839 1.184 9.678 1.184 14.517 0l55.067 102.022h-124.65zm-50.235 144.591c-16.764 0-30.819-11.823-34.262-27.569h16.828c.008 0 .016.001.024.001.007 0 .015-.001.022-.001h149.762c.007 0 .015.001.022.001.008 0 .016-.001.024-.001h16.828c-3.443 15.747-17.498 27.569-34.262 27.569zm143.463 84.18v-78.1c13.035-9.048 21.593-24.115 21.593-41.15 0-4.142-3.358-7.5-7.5-7.5h-14.093v-51.455h124.937v51.455h-14.093c-4.142 0-7.5 3.358-7.5 7.5 0 17.035 8.558 32.102 21.593 41.15v78.1z" fill="#060606"/></g></svg>