<svg height="512pt" viewBox="0 0 512 512" width="512pt" xmlns="http://www.w3.org/2000/svg"><path d="m512 256c0 141.386719-114.613281 256-256 256s-256-114.613281-256-256 114.613281-256 256-256 256 114.613281 256 256zm0 0" fill="#4bb9ec"/><path d="m373.105469 155.542969-41.625-41.625-116.117188 116.113281 32.855469 32.855469-127.410156 127.410156 121.328125 121.324219c4.589843.246094 9.210937.378906 13.863281.378906 141.386719 0 256-114.613281 256-256 0-3.957031-.101562-7.886719-.28125-11.800781l-113.636719-113.636719zm0 0" fill="#0095ff"/><path d="m314.832031 113.914062h16.648438v16.652344h-16.648438l-16.652343-9.367187zm0 0" fill="#2c3b73"/><path d="m314.832031 130.566406-16.652343 14.652344 16.652343 18.648438v33.300781h-184.265625c-9.160156 0-16.652344-24.144531-16.652344-33.300781v-24.976563c0-13.820313 11.15625-24.976563 24.976563-24.976563h175.941406zm0 0" fill="#47568c"/><path d="m314.832031 130.566406-16.652343 14.652344 16.652343 18.648438v33.300781h-83.253906v-83.253907h83.253906zm0 0" fill="#2c3b73"/><path d="m314.832031 130.566406v33.300782h-175.941406c-4.660156 0-8.324219-3.664063-8.324219-8.324219v-16.652344c0-4.660156 3.664063-8.324219 8.324219-8.324219zm0 0" fill="#f2f2fc"/><path d="m231.578125 130.566406h83.253906v33.300782h-83.253906zm0 0" fill="#d8d8fc"/><path d="m398.085938 130.566406v33.300782l-23.644532 16.652343-1.332031-.835937-24.976563-15.816406v-33.300782zm0 0" fill="#f2f2fc"/><path d="m398.085938 130.566406v33.300782l-23.644532 16.652343-1.332031-.835937v-49.117188zm0 0" fill="#d8d8fc"/><path d="m398.085938 163.867188v33.300781l-23.644532 16.652343-1.332031-.835937-24.976563-15.816406v-33.300781zm0 0" fill="#61729b"/><path d="m398.085938 163.867188v33.300781l-23.644532 16.652343-1.332031-.835937v-49.117187zm0 0" fill="#47568c"/><path d="m398.085938 197.167969v133.757812l-24.976563 16.652344-24.976563-16.652344v-133.757812zm0 0" fill="#ff641a"/><path d="m373.109375 197.167969h24.976563v133.757812l-24.976563 16.652344zm0 0" fill="#f03800"/><path d="m398.085938 330.925781-24.976563 67.160157-24.976563-67.160157zm0 0" fill="#ffcebf"/><path d="m373.109375 330.925781h24.976563l-24.976563 67.160157zm0 0" fill="#ffb99c"/><path d="m331.480469 180.519531v217.566407h-184.261719l-16.652344-128.597657 16.652344-88.96875h84.359375l33.300781 18.3125 33.300782-18.3125zm0 0" fill="#fdbf00"/><path d="m331.480469 180.519531v217.566407h-99.902344v-217.566407l33.300781 18.3125 33.300782-18.3125zm0 0" fill="#ff9100"/><path d="m130.566406 180.519531c-9.160156 0-16.652344-7.496093-16.652344-16.652343v209.242187c0 13.820313 11.15625 24.976563 24.976563 24.976563h8.324219v-217.566407zm0 0" fill="#61729b"/><path d="m264.878906 266.007812 33.300782 22.195313v-107.683594h-66.601563v107.683594zm0 0" fill="#f03800"/></svg>